<svg xmlns="http://www.w3.org/2000/svg" width="20.425" height="19" viewBox="0 0 20.425 19">
  <g id="browser-html" transform="translate(0 -17.86)">
    <g id="Group_508" data-name="Group 508" transform="translate(5.392 26.648)">
      <g id="Group_507" data-name="Group 507" transform="translate(0 0)">
        <path id="Path_96" data-name="Path 96" d="M144.535,240.6a5.463,5.463,0,0,0-9.124,0l-.259.392.259.392a5.463,5.463,0,0,0,9.124,0l.259-.392Zm-4.562,1.817a4.029,4.029,0,0,1-3.079-1.425,4.038,4.038,0,0,1,6.157,0A4.029,4.029,0,0,1,139.973,242.415Z" transform="translate(-135.152 -238.14)" fill="#fff"/>
      </g>
    </g>
    <g id="Group_510" data-name="Group 510" transform="translate(9.263 28.548)">
      <g id="Group_509" data-name="Group 509">
        <circle id="Ellipse_8" data-name="Ellipse 8" cx="0.95" cy="0.95" r="0.95" fill="#fff"/>
      </g>
    </g>
    <g id="Group_512" data-name="Group 512" transform="translate(0 17.86)">
      <g id="Group_511" data-name="Group 511" transform="translate(0 0)">
        <path id="Path_97" data-name="Path 97" d="M18.288,17.86H2.138A2.14,2.14,0,0,0,0,20V34.723A2.14,2.14,0,0,0,2.138,36.86h16.15a2.14,2.14,0,0,0,2.138-2.138V20A2.14,2.14,0,0,0,18.288,17.86ZM19,34.723a.713.713,0,0,1-.712.712H2.138a.713.713,0,0,1-.712-.712V23.56H19V34.723Zm0-12.588H1.425V20a.713.713,0,0,1,.712-.712h16.15A.713.713,0,0,1,19,20v2.138Z" transform="translate(0 -17.86)" fill="#fff"/>
      </g>
    </g>
    <g id="Group_514" data-name="Group 514" transform="translate(10.213 19.998)">
      <g id="Group_513" data-name="Group 513">
        <rect id="Rectangle_140" data-name="Rectangle 140" width="8.075" height="1.425" fill="#fff"/>
      </g>
    </g>
    <g id="Group_516" data-name="Group 516" transform="translate(1.9 19.76)">
      <g id="Group_515" data-name="Group 515" transform="translate(0 0)">
        <circle id="Ellipse_9" data-name="Ellipse 9" cx="0.95" cy="0.95" r="0.95" fill="#fff"/>
      </g>
    </g>
  </g>
</svg>
