<?xml version="1.0" encoding="iso-8859-1"?>
<!-- Generator: Adobe Illustrator 19.0.0, SVG Export Plug-In . SVG Version: 6.00 Build 0)  -->
<svg version="1.1" id="Layer_1" xmlns="http://www.w3.org/2000/svg" xmlns:xlink="http://www.w3.org/1999/xlink" x="0px" y="0px"
	 viewBox="0 0 512 512" style="enable-background:new 0 0 512 512;" xml:space="preserve">
<path style="fill:#3E3E42;" d="M493.561,404.755c24.533,24.533,24.533,64.311,0,88.845c-24.533,24.533-64.311,24.533-88.845,0
	L215.401,304.284l88.845-88.845L493.561,404.755z"/>
<path style="fill:#797882;" d="M260.199,259.485l-44.799,44.799l189.315,189.316c24.533,24.533,64.311,24.535,88.845,0
	c0.126-0.126,0.241-0.258,0.366-0.385L260.199,259.485z"/>
<path style="fill:#73B9E6;" d="M167.144,334.366c-44.656,0-86.64-17.39-118.217-48.967c-65.184-65.185-65.184-171.247,0-236.432
	C80.505,17.39,122.488,0,167.144,0s86.64,17.39,118.216,48.967c65.184,65.184,65.184,171.246,0,236.432
	C253.783,316.975,211.8,334.366,167.144,334.366z"/>
<path style="fill:#9CD8FF;" d="M49.309,48.595c-0.126,0.126-0.255,0.246-0.381,0.372c-65.184,65.184-65.184,171.246,0,236.432
	c31.577,31.576,73.56,48.967,118.217,48.967c44.656,0,86.639-17.39,118.216-48.967c0.126-0.126,0.246-0.255,0.372-0.381
	L49.309,48.595z"/>
<rect x="328.1" y="361.15" transform="matrix(0.7071 -0.7071 0.7071 0.7071 -161.9402 390.9276)" style="fill:#C27526;" width="125.642" height="59.586"/>
<rect x="337.211" y="383.177" transform="matrix(0.7071 -0.7071 0.7071 0.7071 -183.9686 381.8015)" style="fill:#F7DC4D;" width="63.36" height="59.586"/>
<path style="fill:#003C61;" d="M167.144,334.366c-44.656,0-86.64-17.39-118.217-48.967c-65.184-65.185-65.184-171.247,0-236.432
	C80.505,17.39,122.488,0,167.144,0s86.64,17.39,118.216,48.967c65.184,65.184,65.184,171.246,0,236.432
	C253.783,316.975,211.8,334.366,167.144,334.366z M167.144,56.161c-29.655,0-57.535,11.549-78.504,32.518
	c-43.288,43.287-43.288,113.721,0,157.008c20.969,20.969,48.849,32.517,78.504,32.517c29.654,0,57.535-11.548,78.504-32.517
	c43.288-43.288,43.288-113.722,0-157.008C224.678,67.71,196.799,56.161,167.144,56.161z"/>
<path style="fill:#007BC7;" d="M167.144,278.205c-29.655,0-57.535-11.548-78.504-32.517c-43.288-43.288-43.288-113.722,0-157.008
	L48.928,48.967c-65.184,65.184-65.184,171.246,0,236.432c31.577,31.576,73.56,48.967,118.217,48.967
	c44.656,0,86.639-17.39,118.216-48.967l-39.711-39.711C224.678,266.656,196.799,278.204,167.144,278.205z"/>
<g>
</g>
<g>
</g>
<g>
</g>
<g>
</g>
<g>
</g>
<g>
</g>
<g>
</g>
<g>
</g>
<g>
</g>
<g>
</g>
<g>
</g>
<g>
</g>
<g>
</g>
<g>
</g>
<g>
</g>
</svg>
